<svg xmlns="http://www.w3.org/2000/svg" viewBox="0 0 24 24" fill="#000">
  <path d="M7.15 8.685c.03.02.05.06.05.1v6.44c0 .04-.02.08-.05.1-.029.03-.068.047-.11.05H.16a.18.18 0 0 1-.11-.05.146.146 0 0 1-.05-.1v-6.44c0-.04.02-.08.05-.1.029-.03.068-.047.11-.05h6.88c.04 0 .08.02.11.05Zm-2.35 2.35a.142.142 0 0 0-.05-.1.163.163 0 0 0-.11-.05H2.56a.17.17 0 0 0-.11.04.142.142 0 0 0-.05.1v1.95c0 .04.02.08.05.1.03.04.07.05.11.05h2.08c.04 0 .08-.01.11-.04a.142.142 0 0 0 .05-.1v-1.95Zm16.8 0v1.94c0 .09-.07.15-.16.15h-2.08c-.09 0-.16-.06-.16-.15v-1.94c0-.08.07-.15.16-.15h2.08c.09 0 .16.06.16.15Zm-2.4-2.25v1.95c0 .08-.07.15-.16.15h-2.08c-.09 0-.16-.07-.16-.15v-1.95c0-.08.07-.15.16-.15h2.08c.09 0 .16.07.16.15Zm4.8 0v1.95c0 .08-.07.15-.16.15h-2.08c-.09 0-.16-.07-.16-.15v-1.95c0-.08.07-.15.16-.15h2.08c.09 0 .16.07.16.15Zm-4.8 4.5v1.94c0 .08-.07.15-.16.15h-2.08c-.09 0-.16-.07-.16-.15v-1.95c0-.08.07-.15.16-.15h2.08c.09 0 .16.07.16.15v.01Zm4.8 0v1.94c0 .08-.07.15-.16.15h-2.08c-.09 0-.16-.07-.16-.15v-1.95c0-.08.07-.15.16-.15h2.08c.09 0 .16.07.16.15v.01Zm-8.4-4.5v1.95c0 .08-.07.15-.16.15h-2.08c-.09 0-.16-.07-.16-.15v-1.95c0-.08.07-.15.16-.15h2.08c.09 0 .16.07.16.15Zm0 4.5v1.94c0 .08-.07.15-.16.15h-2.08c-.09 0-.16-.07-.16-.15v-1.95c0-.08.07-.15.16-.15h2.08c.09 0 .16.07.16.15v.01Zm-2.4-.3a.16.16 0 0 1-.16.15H10.8v2.08c0 .04-.02.08-.05.11a.17.17 0 0 1-.11.04H8.56a.163.163 0 0 1-.12-.04.146.146 0 0 1-.04-.1V8.775c0-.04.01-.08.04-.1a.17.17 0 0 1 .12-.05h2.08c.04 0 .08.02.11.05.03.02.05.06.05.1v2.1h2.24c.04 0 .08.01.11.04s.05.07.05.1v1.97Z"/>
</svg>
