<?xml version="1.0" standalone="no"?><!DOCTYPE svg PUBLIC "-//W3C//DTD SVG 1.1//EN" "http://www.w3.org/Graphics/SVG/1.1/DTD/svg11.dtd"><svg class="icon" width="200px" height="200.00px" viewBox="0 0 1024 1024" version="1.1" xmlns="http://www.w3.org/2000/svg"><path d="M431.976296 560.128l148.290371-21.845333 14.260148-90.415408-148.252445 21.845334z" fill="#3cde45" /><path d="M763.448889 56.888889H260.551111C148.29037 56.888889 56.888889 148.29037 56.888889 260.551111v502.897778c0 112.260741 91.401481 203.662222 203.662222 203.662222h502.897778c112.260741 0 203.662222-91.401481 203.662222-203.662222V260.551111c0-112.260741-91.401481-203.662222-203.662222-203.662222z m-23.096889 457.803852a37.736296 37.736296 0 0 1 43.045926 32.009481 37.925926 37.925926 0 0 1-31.971556 43.045926l-104.978963 15.435852-23.134814 146.62163a37.925926 37.925926 0 1 1-74.903704-11.832889l19.456-123.183408-148.252445 21.807408-17.863111 113.208889a37.925926 37.925926 0 1 1-74.903703-11.832889l14.184296-89.808593-57.381926 8.457482a37.925926 37.925926 0 0 1-11.036444-75.017482l80.782222-11.908741 14.298074-90.415407-84.043852 12.401778a37.925926 37.925926 0 0 1-11.036444-75.055408l107.482074-15.815111 20.593777-130.616889a37.888 37.888 0 1 1 74.903704 11.870815l-16.914963 107.178667 148.252445-21.845333 15.322074-97.204149a37.888 37.888 0 1 1 74.903703 11.870815l-11.643259 73.765926 54.840889-8.078222a37.736296 37.736296 0 0 1 43.045926 31.971555 37.925926 37.925926 0 0 1-32.009482 43.045926l-78.279111 11.529482-14.260148 90.415407 81.540741-12.022518z" fill="#3cde45" /></svg>