<svg xmlns="http://www.w3.org/2000/svg" viewBox="0 0 64 64" role="img" aria-label="USDC">
  <circle cx="32" cy="32" r="32" fill="#2775CA"/>
  <path fill="#fff" d="M25.2 48.9c-6.2-2.6-10.5-8.8-10.5-16.9s4.3-14.3 10.5-16.9v4.4c-3.9 2.3-6.5 6.8-6.5 12.5s2.6 10.2 6.5 12.5v4.4Zm13.6 0v-4.4c3.9-2.3 6.5-6.8 6.5-12.5s-2.6-10.2-6.5-12.5v-4.4c6.2 2.6 10.5 8.8 10.5 16.9s-4.3 14.3-10.5 16.9Z"/>
  <path fill="#fff" d="M34.2 43.3h-4.4v-4.1c-3.7-.6-6.1-2.6-7.1-5.8l4-1.1c.7 2.2 2.4 3.4 5.1 3.4 2.5 0 4-1 4-2.6 0-1.5-1-2.2-4.9-2.8-4.8-.8-7.4-2.9-7.4-6.4 0-3.2 2.4-5.7 6.3-6.4v-4h4.4v4c3.3.6 5.5 2.4 6.6 5.2l-3.9 1.3c-.8-2-2.2-3-4.5-3-2.4 0-3.8 1.1-3.8 2.6 0 1.4 1 2 4.9 2.7 5.1.9 7.5 3 7.5 6.5 0 3.4-2.5 5.8-6.8 6.4v4.1Z"/>
</svg>
