<?xml version="1.0" standalone="no"?><!DOCTYPE svg PUBLIC "-//W3C//DTD SVG 1.1//EN" "http://www.w3.org/Graphics/SVG/1.1/DTD/svg11.dtd"><svg class="icon" width="200px" height="200.00px" viewBox="0 0 1024 1024" version="1.1" xmlns="http://www.w3.org/2000/svg"><path d="M245.191111 678.741333a25.372444 25.372444 0 0 1 18.204445-7.68h631.466666c11.207111 0 17.180444 14.222222 9.102222 22.584889l-124.586666 127.203556a25.315556 25.315556 0 0 1-18.204445 7.68H129.137778c-11.264 0-17.180444-14.222222-9.102222-22.471111l125.041777-127.317334h0.113778z" fill="#C931F7" /><path d="M245.191111 203.093333a25.315556 25.315556 0 0 1 18.204445-7.623111h631.466666c11.207111 0 17.180444 14.222222 9.102222 22.471111L779.377778 345.258667a25.315556 25.315556 0 0 1-18.204445 7.68H129.137778c-11.264 0-17.180444-14.222222-9.102222-22.528L244.963556 203.093333h0.170666z" fill="#1CE2AF" /><path d="M778.808889 439.580444a25.315556 25.315556 0 0 0-18.204445-7.68H129.137778c-11.207111 0-17.180444 14.222222-9.102222 22.471112l124.586666 127.260444a25.315556 25.315556 0 0 0 18.204445 7.68h631.466666c11.264 0 17.180444-14.222222 9.102223-22.471111l-124.586667-127.260445z" fill="#6697CE" /></svg>